<svg width="430" height="205" viewBox="0 0 430 205" fill="none" xmlns="http://www.w3.org/2000/svg">
<path d="M173.472 182.237L190.714 130.725H199.585L216.828 182.237H210.21L194.077 134.445H196.08L180.09 182.237H173.472ZM181.771 170.182V164.208H208.529V170.182H181.771ZM223.947 182.237V129.652H230.314V182.237H223.947ZM258.791 183.31C255.166 183.31 252.113 182.416 249.633 180.627C247.153 178.815 245.269 176.37 243.981 173.294C242.717 170.194 242.085 166.724 242.085 162.884C242.085 158.997 242.717 155.515 243.981 152.439C245.269 149.362 247.153 146.942 249.633 145.177C252.137 143.412 255.202 142.53 258.826 142.53C262.404 142.53 265.48 143.424 268.056 145.213C270.655 146.977 272.646 149.398 274.03 152.474C275.413 155.551 276.104 159.021 276.104 162.884C276.104 166.747 275.413 170.217 274.03 173.294C272.646 176.37 270.655 178.815 268.056 180.627C265.48 182.416 262.392 183.31 258.791 183.31ZM241.012 199.407V143.603H246.7V172.042H247.415V199.407H241.012ZM258.004 177.479C260.555 177.479 262.666 176.835 264.335 175.547C266.005 174.26 267.257 172.519 268.091 170.325C268.926 168.107 269.343 165.627 269.343 162.884C269.343 160.165 268.926 157.709 268.091 155.515C267.281 153.321 266.017 151.58 264.3 150.292C262.606 149.004 260.448 148.361 257.825 148.361C255.321 148.361 253.246 148.981 251.6 150.221C249.955 151.437 248.727 153.142 247.916 155.336C247.105 157.506 246.7 160.022 246.7 162.884C246.7 165.698 247.093 168.214 247.88 170.432C248.691 172.626 249.931 174.355 251.6 175.619C253.27 176.859 255.404 177.479 258.004 177.479ZM311.455 182.237V162.884C311.455 161.048 311.288 159.283 310.954 157.59C310.644 155.897 310.084 154.382 309.273 153.047C308.486 151.687 307.413 150.614 306.054 149.827C304.718 149.04 303.025 148.647 300.974 148.647C299.376 148.647 297.921 148.921 296.61 149.47C295.322 149.994 294.213 150.805 293.283 151.902C292.353 152.999 291.625 154.382 291.101 156.052C290.6 157.697 290.35 159.641 290.35 161.882L286.164 160.595C286.164 156.85 286.832 153.643 288.167 150.972C289.527 148.277 291.423 146.214 293.855 144.783C296.312 143.329 299.197 142.601 302.512 142.601C305.016 142.601 307.151 142.995 308.915 143.782C310.68 144.569 312.147 145.618 313.315 146.93C314.484 148.217 315.402 149.672 316.07 151.294C316.737 152.892 317.203 154.525 317.465 156.195C317.751 157.84 317.894 159.402 317.894 160.881V182.237H311.455ZM283.911 182.237V130.725H289.634V159.164H290.35V182.237H283.911ZM343.936 183.31C340.144 183.31 336.829 182.475 333.991 180.806C331.177 179.113 328.983 176.764 327.409 173.759C325.835 170.73 325.048 167.201 325.048 163.17C325.048 158.949 325.823 155.3 327.373 152.224C328.923 149.124 331.082 146.739 333.848 145.07C336.638 143.376 339.905 142.53 343.65 142.53C347.537 142.53 350.84 143.424 353.558 145.213C356.301 147.001 358.352 149.553 359.711 152.868C361.094 156.183 361.691 160.13 361.5 164.708H355.061V162.419C354.989 157.673 354.023 154.132 352.163 151.795C350.303 149.434 347.537 148.253 343.864 148.253C339.929 148.253 336.936 149.517 334.885 152.045C332.834 154.573 331.809 158.198 331.809 162.92C331.809 167.475 332.834 171.004 334.885 173.508C336.936 176.012 339.858 177.264 343.65 177.264C346.201 177.264 348.419 176.68 350.303 175.512C352.187 174.343 353.666 172.662 354.739 170.468L360.856 172.578C359.353 175.989 357.088 178.636 354.059 180.52C351.054 182.38 347.68 183.31 343.936 183.31ZM329.663 164.708V159.593H358.209V164.708H329.663ZM369.464 182.237V143.603H375.152V152.939L374.222 151.723C374.675 150.531 375.259 149.434 375.975 148.432C376.714 147.43 377.537 146.608 378.443 145.964C379.445 145.153 380.577 144.533 381.841 144.104C383.105 143.674 384.393 143.424 385.705 143.352C387.016 143.257 388.245 143.341 389.389 143.603V149.577C388.054 149.219 386.587 149.124 384.989 149.291C383.391 149.458 381.913 150.042 380.554 151.043C379.313 151.926 378.348 152.999 377.656 154.263C376.988 155.527 376.523 156.898 376.261 158.377C375.999 159.832 375.867 161.322 375.867 162.848V182.237H369.464ZM400.821 199.407L408.297 179.089L408.404 185.099L391.52 143.603H398.209L411.445 176.978H409.156L421.569 143.603H428.043L407.009 199.407H400.821Z" fill="white"/>
<path fill-rule="evenodd" clip-rule="evenodd" d="M0.667162 147.392C1.28632 147.905 4.10762 148.059 12.1541 148.019C18.0209 147.989 22.9783 148.122 23.1706 148.315C23.3628 148.507 23.0511 149.322 22.4781 150.128C21.905 150.932 20.8149 153.198 20.0559 155.163C18.211 159.939 17.738 169.514 19.0905 174.703C21.6483 184.512 28.7645 192.907 37.4934 196.413C48.1878 200.708 64.0371 200.155 79.3379 194.953C87.3299 192.237 95.3826 188.527 101.862 184.578C102.727 184.051 103.724 183.62 104.079 183.619C104.434 183.618 110.378 187.859 117.286 193.045C124.195 198.231 130.32 202.474 130.897 202.474C132.77 202.474 133.03 200.862 133.03 189.209C133.03 176.236 133.592 177.744 126.744 172.338C124.295 170.404 122.087 168.634 121.836 168.404C121.586 168.175 122.701 165.316 124.314 162.051C130.346 149.846 132.261 140.904 131.846 126.87C131.629 119.488 131.341 116.962 130.24 112.77C124.286 90.0912 106.721 72.0429 84.3106 65.5784C72.4125 62.1458 57.5721 62.4501 45.8133 66.3673C25.5671 73.112 9.19446 90.0194 3.33761 110.228C1.16322 117.733 0.424105 123.535 0.127622 135.437C-0.117003 145.259 -0.0473315 146.799 0.667162 147.392ZM27.3486 143.665C35.0273 136.009 45.1308 131.758 55.6476 131.758C67.8956 131.758 82.022 137.89 99.4197 150.76C101.656 152.415 101.704 152.424 102.493 151.397C102.934 150.823 103.969 148.899 104.792 147.12C112.012 131.523 109.5 113.707 98.2684 100.847C89.4063 90.6999 74.4323 84.8797 61.737 86.6465C43.6882 89.1593 29.3663 102.119 25.1359 119.766C24.2481 123.471 24.0815 125.955 24.0784 135.546L24.0747 146.93L27.3486 143.665ZM43.6719 169.211C46.478 175.526 57.4034 176.871 70.5477 172.521C73.3685 171.588 75.8739 171.052 76.5716 171.233C88.1254 168.254 79.3334 164.132 66.6117 158.558C58.5055 155.007 49.0516 155.364 45.4393 159.355C43.1319 161.905 42.3535 166.245 43.6719 169.211Z" fill="url(#paint0_linear_5_106)"/>
<path d="M23.771 16.4673C40.9006 16.4673 54.7869 30.3536 54.7869 47.4832C37.6573 47.4832 23.771 33.5969 23.771 16.4673Z" fill="#2D13BF"/>
<path d="M109.27 0C83.0459 0 61.7869 21.259 61.7869 47.4832C88.0112 47.4832 109.27 26.2242 109.27 0Z" fill="white"/>
<defs>
<linearGradient id="paint0_linear_5_106" x1="66.5204" y1="63.2014" x2="66.5204" y2="202.474" gradientUnits="userSpaceOnUse">
<stop stop-color="#2D13BF"/>
<stop offset="1" stop-color="#7C1CE2"/>
</linearGradient>
</defs>
</svg>
