<svg width="134" height="203" viewBox="0 0 134 203" fill="none" xmlns="http://www.w3.org/2000/svg">
<path fill-rule="evenodd" clip-rule="evenodd" d="M0.667162 147.392C1.28632 147.905 4.10762 148.059 12.1541 148.019C18.0209 147.989 22.9783 148.122 23.1706 148.315C23.3628 148.507 23.0511 149.322 22.4781 150.128C21.905 150.932 20.8149 153.198 20.0559 155.163C18.211 159.939 17.738 169.514 19.0905 174.703C21.6483 184.512 28.7645 192.907 37.4934 196.413C48.1878 200.708 64.0371 200.155 79.3379 194.953C87.3299 192.237 95.3826 188.527 101.862 184.578C102.727 184.051 103.724 183.62 104.079 183.619C104.434 183.618 110.378 187.859 117.286 193.045C124.195 198.231 130.32 202.474 130.897 202.474C132.77 202.474 133.03 200.862 133.03 189.209C133.03 176.236 133.592 177.744 126.744 172.338C124.295 170.404 122.087 168.634 121.836 168.404C121.586 168.175 122.701 165.316 124.314 162.051C130.346 149.846 132.261 140.904 131.846 126.87C131.629 119.488 131.341 116.962 130.24 112.77C124.286 90.0912 106.721 72.0429 84.3106 65.5784C72.4125 62.1458 57.5721 62.4501 45.8133 66.3673C25.5671 73.112 9.19446 90.0194 3.33761 110.228C1.16322 117.733 0.424105 123.535 0.127622 135.437C-0.117003 145.259 -0.0473315 146.799 0.667162 147.392ZM27.3486 143.665C35.0273 136.009 45.1308 131.758 55.6476 131.758C67.8956 131.758 82.022 137.89 99.4197 150.76C101.656 152.415 101.704 152.424 102.493 151.397C102.934 150.823 103.969 148.899 104.792 147.12C112.012 131.523 109.5 113.707 98.2684 100.847C89.4063 90.6999 74.4323 84.8797 61.737 86.6465C43.6882 89.1593 29.3663 102.119 25.1359 119.766C24.2481 123.471 24.0815 125.955 24.0784 135.546L24.0747 146.93L27.3486 143.665ZM43.6719 169.211C46.478 175.526 57.4034 176.871 70.5477 172.521C73.3685 171.588 75.8739 171.052 76.5716 171.233C88.1254 168.254 79.3334 164.132 66.6117 158.558C58.5055 155.007 49.0516 155.364 45.4393 159.355C43.1319 161.905 42.3535 166.245 43.6719 169.211Z" fill="url(#paint0_linear_17_8)"/>
<path d="M23.771 16.4673V16.4673C40.9006 16.4673 54.7869 30.3536 54.7869 47.4832V47.4832V47.4832C37.6573 47.4832 23.771 33.5969 23.771 16.4673V16.4673Z" fill="#2D13BF"/>
<path d="M109.27 0V0C83.0459 0 61.7869 21.259 61.7869 47.4832V47.4832V47.4832C88.0112 47.4832 109.27 26.2242 109.27 0V0Z" fill="white"/>
<defs>
<linearGradient id="paint0_linear_17_8" x1="66.5204" y1="63.2014" x2="66.5204" y2="202.474" gradientUnits="userSpaceOnUse">
<stop stop-color="#2D13BF"/>
<stop offset="1" stop-color="#7C1CE2"/>
</linearGradient>
</defs>
</svg>
